HIERARCHY
ROOT Hips
{
 OFFSET 0.000000 0.000000 0.000000
 CHANNELS 6 Xposition Yposition Zposition Yrotation Xrotation Zrotation
 JOINT Chest
 {
  OFFSET 0.000000 9.585900 0.002600
  CHANNELS 3 Yrotation Xrotation Zrotation
  JOINT Chest2
  {
   OFFSET 0.000000 9.601200 -0.005300
   CHANNELS 3 Yrotation Xrotation Zrotation
   JOINT Chest3
   {
    OFFSET 0.000000 9.561800 0.000000
    CHANNELS 3 Yrotation Xrotation Zrotation
    JOINT Chest4
    {
     OFFSET 0.000000 9.552100 0.000000
     CHANNELS 3 Yrotation Xrotation Zrotation
     JOINT Neck
     {
      OFFSET 0.000000 14.453000 0.000000
      CHANNELS 3 Yrotation Xrotation Zrotation
      JOINT Head
      {
       OFFSET 0.000000 8.936500 -0.011300
       CHANNELS 3 Yrotation Xrotation Zrotation
       End Site
       {
        OFFSET 0.000000 17.073600 -0.006000
       }
      }
     }
     JOINT RightCollar
     {
      OFFSET -2.921100 9.558500 0.000000
      CHANNELS 3 Yrotation Xrotation Zrotation
      JOINT RightShoulder
      {
       OFFSET -13.519700 0.000000 0.000000
       CHANNELS 3 Yrotation Xrotation Zrotation
       JOINT RightElbow
       {
        OFFSET 0.000000 -29.696600 0.000000
        CHANNELS 3 Yrotation Xrotation Zrotation
        JOINT RightWrist
        {
         OFFSET 0.000000 -24.004700 0.000000
         CHANNELS 3 Yrotation Xrotation Zrotation
         End Site
         {
          OFFSET 0.000000 -17.728500 0.000000
         }
        }
       }
      }
     }
     JOINT LeftCollar
     {
      OFFSET 2.921100 9.558500 0.000000
      CHANNELS 3 Yrotation Xrotation Zrotation
      JOINT LeftShoulder
      {
       OFFSET 13.519700 0.000000 0.000000
       CHANNELS 3 Yrotation Xrotation Zrotation
       JOINT LeftElbow
       {
        OFFSET 0.000000 -29.696600 0.000000
        CHANNELS 3 Yrotation Xrotation Zrotation
        JOINT LeftWrist
        {
         OFFSET 0.000000 -24.004700 0.000000
         CHANNELS 3 Yrotation Xrotation Zrotation
         End Site
         {
          OFFSET 0.000000 -17.728500 0.000000
         }
        }
       }
      }
     }
    }
   }
  }
 }
 JOINT RightHip
 {
  OFFSET -7.771700 -0.012900 -0.001300
  CHANNELS 3 Yrotation Xrotation Zrotation
  JOINT RightKnee
  {
   OFFSET 0.000000 -40.869800 0.001200
   CHANNELS 3 Yrotation Xrotation Zrotation
   JOINT RightAnkle
   {
    OFFSET 0.000000 -39.717900 0.002100
    CHANNELS 3 Yrotation Xrotation Zrotation
    JOINT RightToe
    {
     OFFSET 0.000000 -4.965400 11.033500
     CHANNELS 3 Yrotation Xrotation Zrotation
     End Site
     {
      OFFSET 0.000000 -1.423100 5.872300
     }
    }
   }
  }
 }
 JOINT LeftHip
 {
  OFFSET 7.771700 -0.012900 -0.001300
  CHANNELS 3 Yrotation Xrotation Zrotation
  JOINT LeftKnee
  {
   OFFSET 0.000000 -40.869800 0.001200
   CHANNELS 3 Yrotation Xrotation Zrotation
   JOINT LeftAnkle
   {
    OFFSET 0.000000 -39.717900 0.002100
    CHANNELS 3 Yrotation Xrotation Zrotation
    JOINT LeftToe
    {
     OFFSET 0.000000 -4.965400 11.033500
     CHANNELS 3 Yrotation Xrotation Zrotation
     End Site
     {
      OFFSET 0.000000 -1.423100 5.872300
     }
    }
   }
  }
 }
}
MOTION
Frames: 5
Frame Time: 0.008333
-4.790937 54.925516 31.012535 177.558370 -31.581964 -11.847057 1.029554 12.584400 6.841649 0.613560 7.331597 2.336466 0.786480 9.118663 2.927357 0.613728 7.345721 2.338313 -10.264288 22.385500 -8.676329 -9.471279 -1.126907 -7.315423 0.707418 5.293918 -1.458810 -16.845569 -5.987792 4.016016 74.122824 -78.386418 -58.193353 12.092682 -1.797156 -13.756207 -9.433167 4.153447 -3.606746 5.145368 -2.408855 -0.760186 -97.322274 -67.354848 104.537783 13.350266 -18.258326 -5.887561 -17.200914 -33.960772 8.140243 43.760699 84.714346 40.947018 2.205708 -18.791882 0.156634 -1.128112 2.500215 -0.533960 -18.002606 -46.205979 19.649996 168.638637 78.953984 164.504743 -0.612600 -15.887874 -0.105848 -1.285004 -2.391022 -0.566955
-4.789713 54.931222 31.018419 177.552054 -31.622160 -11.862284 1.055186 12.616899 6.862163 0.616750 7.359828 2.343993 0.812527 9.193361 2.947356 0.605830 7.338863 2.338452 -10.233264 22.414541 -8.613189 -9.441990 -1.078508 -7.251328 0.699348 5.280571 -1.464134 -16.845572 -6.079135 3.945025 74.722104 -78.337034 -58.741303 12.196768 -1.842884 -13.664067 -9.470264 4.141728 -3.608718 5.117966 -2.482846 -0.756386 -97.250164 -67.026394 104.500440 13.357579 -18.608039 -5.697160 -17.203675 -33.924700 8.147970 43.764848 84.711561 40.955611 2.208907 -18.781055 0.148744 -1.121676 2.499351 -0.530946 -17.988235 -46.172768 19.657616 168.626614 78.950919 164.493313 -0.603678 -15.883034 -0.095299 -1.300254 -2.393729 -0.575454
-4.786392 54.936991 31.023504 177.538922 -31.663178 -11.882951 1.090929 12.656115 6.894829 0.616199 7.387671 2.349813 0.811102 9.191519 2.947412 0.617042 7.417621 2.355653 -10.198648 22.432534 -8.551642 -9.410065 -1.039431 -7.188653 0.691507 5.212497 -1.479014 -16.821528 -6.137790 3.860807 75.307960 -78.287738 -59.286198 12.295730 -1.927103 -13.563435 -9.500693 4.116108 -3.615960 5.033479 -2.544786 -0.731276 -97.168129 -66.727568 104.514118 13.363106 -18.964001 -5.517644 -17.197541 -33.883209 8.160728 43.754201 84.702544 40.962253 2.200268 -18.777159 0.134966 -1.108506 2.506748 -0.526917 -17.982677 -46.132718 19.685434 168.656576 78.948086 164.513790 -0.579746 -15.888274 -0.079182 -1.327162 -2.390238 -0.588235
-4.785012 54.942674 31.026288 177.544083 -31.706323 -11.896769 1.103254 12.701024 6.909237 0.615216 7.402290 2.352518 0.819095 9.258455 2.961004 0.615724 7.427683 2.358457 -10.158617 22.465324 -8.492417 -9.376105 -1.006265 -7.129405 0.707328 5.220308 -1.479329 -16.803790 -6.266151 3.780988 75.880776 -78.230410 -59.829053 12.392197 -2.035128 -13.459196 -9.526882 4.106316 -3.625547 4.949069 -2.607646 -0.703217 -97.100817 -66.450892 104.539611 13.377842 -19.309951 -5.367800 -17.194841 -33.841423 8.161846 43.754153 84.704772 40.963119 2.194132 -18.778864 0.138620 -1.104241 2.510033 -0.530274 -17.968026 -46.096562 19.676893 168.658890 78.943838 164.520305 -0.565689 -15.885497 -0.077551 -1.340087 -2.393425 -0.591977
-4.782183 54.946720 31.031026 177.542725 -31.729233 -11.912632 1.116602 12.733223 6.929143 0.614556 7.410431 2.354679 0.822178 9.291873 2.967718 0.619086 7.467179 2.365058 -10.119143 22.496728 -8.435697 -9.342347 -0.974644 -7.073033 0.730455 5.229795 -1.476754 -16.811943 -6.382408 3.746629 76.576626 -78.124791 -60.475926 12.482582 -2.150548 -13.359602 -9.556278 4.101564 -3.636685 4.891405 -2.677872 -0.678208 -97.057742 -66.200126 104.556872 13.398199 -19.624724 -5.267799 -17.216018 -33.817079 8.176052 43.800239 84.701556 41.010402 2.196371 -18.780436 0.123066 -1.096746 2.517113 -0.524469 -17.954626 -46.081862 19.686625 168.694191 78.941449 164.564726 -0.561912 -15.886079 -0.071414 -1.343773 -2.391717 -0.594200
